<?xml version="1.0" encoding="UTF-8"?>
<!-- Created with Inkscape (http://www.inkscape.org/) -->
<svg width="187.8mm" height="187.85mm" version="1.1" viewBox="0 0 187.8 187.85" xml:space="preserve" xmlns="http://www.w3.org/2000/svg"><g transform="translate(-10.875 -54.762)"><rect x="15.844" y="59.732" width="177.86" height="177.91" ry="15.346" stroke="#fff" stroke-linecap="round" stroke-width="9.9388"/><g fill="#f9f9f9" stroke-width="0"><rect transform="rotate(45)" x="128.97" y="26.967" width="15.91" height="15.91"/><path d="m83.375 132.26-11.25 11.25-11.25-11.25-11.25 11.25 22.5 22.5 22.5-22.5z"/><path d="m90.875 158.26-18.75 18.751-18.75-18.751-18.75 18.751 37.5 37.5 37.5-37.5z"/></g><g transform="translate(65.523 -28.129)" fill="#f9f9f9" stroke-width="0"><rect transform="rotate(45)" x="128.97" y="26.967" width="15.91" height="15.91"/><path d="m83.375 132.26-11.25 11.25-11.25-11.25-11.25 11.25 22.5 22.5 22.5-22.5z"/><path d="m90.875 158.26-18.75 18.751-18.75-18.751-18.75 18.751 37.5 37.5 37.5-37.5z"/></g></g></svg>
