<?xml version="1.0" encoding="UTF-8"?>
<svg width="187.8mm" height="187.8mm" ml-update="aware" version="1.1" viewBox="0 0 187.8 187.8" xml:space="preserve" xmlns="http://www.w3.org/2000/svg"><rect x="4.9687" y="4.9687" width="177.86" height="177.86" ry="15.341" stroke="#fff" stroke-linecap="round" stroke-width="9.9374"/><path d="m89.116 76.407c-2.3437-0.09771-4.3356-1.2182-7.323-2.943-8.5071-4.9116-21.296-3.9633-25.846-3.964-12.818-0.002784-26.675 0.046988-38.047 3.094l0.385 9.266c3.3183 1.1544 6.784 4.2715 6.784 6.914 0 12.127 4.0311 21.202 9.4978 25.397 3.8824 2.9797 8.7567 5.3096 17.888 5.3096 20.179 0 20.053-2.8265 25.121-8.3958 4.4488-4.8894 9.7115-13.498 11.769-21.634 0.3995-1.5798 3.1044-4.4681 4.555-4.4681 1.5673 0 4.0387 2.8884 4.555 4.4681 2.6071 7.9771 7.3203 16.745 11.769 21.634 5.0674 5.5694 5.1765 8.396 25.121 8.396 9.1318 0 14.006-2.3293 17.888-5.309 5.4667-4.1956 9.498-13.376 9.498-25.398 0-2.6425 3.4657-5.7596 6.784-6.914l0.385-9.266c-11.556-3.0964-25.229-3.0968-38.047-3.094-4.5504 6.91e-4 -17.555-0.82306-25.846 3.964-2.8487 1.6447-4.7402 2.4434-7.3231 2.943-3.1312 0.60565-6.3817 0.13283-9.5679 0zm-37.318-1.7413c2.8316-0.0048 5.6991 0.06037 8.4114 0.02155 2.3471-0.03357 18.518-0.4536 21.131 8.7631 2.4906 8.7851-2.3762 17.574-9.069 24.267-5.2248 5.2248-27.048 9.1732-35.505-0.259-5.7967-6.4648-5.023-10.33-5.6405-18.462-0.39116-5.1511-0.9987-10.406 7.84-13.079 3.5118-1.0621 8.1132-1.2441 12.833-1.2519zm74.32 0c0.67189-0.0035 1.1803 0.0174 1.4737 0.02155 2.7123 0.03881 5.5799-0.02638 8.4114-0.02155 4.7193 0.0078 9.3207 0.18982 12.833 1.2519 8.8387 2.673 8.2312 7.9283 7.84 13.079-0.61746 8.1313 0.15569 12.997-5.641 19.462-8.4575 9.4322-30.629 4.1346-35.505-0.741-6.9085-6.9085-11.56-15.483-9.0689-24.268 2.2863-8.0646 14.954-8.7615 19.657-8.7847zm-101.43 1.9423h3.098v1.49h-3.098zm135.33 0h3.098v1.49h-3.098z" fill="#fff"/></svg>
