<?xml version="1.0" encoding="UTF-8"?>
<!-- Created with Inkscape (http://www.inkscape.org/) -->
<svg width="187.8mm" height="187.85mm" version="1.1" viewBox="0 0 187.8 187.85" xml:space="preserve" xmlns="http://www.w3.org/2000/svg"><g transform="translate(-10.875 -54.762)"><rect x="15.844" y="59.732" width="177.86" height="177.91" ry="15.346" stroke="#fff" stroke-linecap="round" stroke-width="9.9388"/><path d="m149.24 206.39c1.401-4.8048 4.0934-9.8301 5.9832-11.167 8.5688-6.0634 11.239-35.879 5.089-56.813-9.4724-32.242-24.268-46.503-51.906-50.032-8.7122-1.1125-19.085-2.3608-22.622-3.9503-4.2508-1.9104-10.029-3.3484-12.357 1.0376-1.7246 3.2492-4.8275 1.8618-8.7125 6.6576-4.3086 5.3188-6.4789 6.5232-11.331 12.11-6.3068 7.2618-10.777 18.303-11.605 29.803-1.2578 17.468 1.1794 23.463 4.4897 31.645 6.8654 16.968 10.199 17.69 8.891-1.5275-0.34446-5.0593-1.3461-9.7316-0.1528-13.353s2.4788 0.46829 6.9423-8.9142c2.5245-5.3066 10.005-3.5638 14.369 3.4868 4.0859 6.6017 15.309 18.075 15.309 15.65 0-0.81669 2.52 2.0726 6.171 5.2783 3.6511 3.2057 3.7917 6.0533 8.9249 5.4835 7.0271-0.78009 9.0819 6.0244 16.876 11.153 4.4906 2.9552 5.2488 2.3794 7.6336 6.5009s7.7983 15.627 10.384 24.637c1.3674 4.7645 5.0873 1.0148 7.6241-7.6851z" fill="#fff"/></g></svg>
