<?xml version="1.0" encoding="UTF-8"?>
<!-- Created with Inkscape (http://www.inkscape.org/) -->
<svg width="187.8mm" height="187.85mm" version="1.1" viewBox="0 0 187.8 187.85" xml:space="preserve" xmlns="http://www.w3.org/2000/svg"><g transform="translate(-10.875 -54.762)"><rect x="15.844" y="59.732" width="177.86" height="177.91" ry="15.346" stroke="#fff" stroke-linecap="round" stroke-width="9.9388"/><path d="m166.74 161.09c-9.1302-7.6911-7.4251-7.7526-16.702-2.917-16.997 8.8595-67.604 8.8852-87.59 0.0445-8.5317-3.774-7.9755-3.1025-16.06 3.0274-18.977 14.389-2.679 25.412 46.181 30.952 7.7335 0.87687 15.865 1.1292 16.898 1.2697s9.7623-0.39134 18.542-1.8245c47.762-8.4441 56.722-15.397 38.732-30.552zm-23.47-3.9417c11.81-3.8486 12.696-4.9416 11.213-10.853-1.2024-4.7905-1.2024-4.7905-9.9635-0.8861-13.016 5.8005-62.724 5.8005-75.74 0-8.7611-3.9044-8.7611-3.9044-9.9454 0.81412-1.5162 6.0411-2.343 7.1699 14.951 11.734 5.0989 1.3456 11.08 2.3259 13.146 2.7994 8.657 1.9839 38.142 2.3224 56.34-3.6079zm-0.4392-14.958c14.931-6.1715 10.311-3.5674 4.1517-28.875-3.9128-16.076-71.621-17.55-79.342-1.6985-1.1205 2.3004-2.5657 7.563-3.2115 11.695s-1.5853 8.8762-2.0612 10.551c-0.92208 3.2455-3.0439 4.7198 5.4458 7.924 16.147 6.0942 58.641 7.1726 75.017 0.4035z" fill="#fff"/></g></svg>
